<?xml version="1.0" encoding="UTF-8" standalone="no"?>
<!DOCTYPE svg PUBLIC "-//W3C//DTD SVG 1.1//EN"
 "http://www.w3.org/Graphics/SVG/1.1/DTD/svg11.dtd">
<!-- Generated by graphviz version 9.0.0 (20230911.1827)
 -->
<!-- Title: mybot Pages: 1 -->
<svg width="1596pt" height="1080pt"
 viewBox="0.00 0.00 1596.00 1079.65" xmlns="http://www.w3.org/2000/svg" xmlns:xlink="http://www.w3.org/1999/xlink">
<g id="graph0" class="graph" transform="scale(1 1) rotate(0) translate(4 1075.65)">
<title>mybot</title>
<polygon fill="white" stroke="none" points="-4,4 -4,-1075.65 1592,-1075.65 1592,4 -4,4"/>
<g id="clust1" class="cluster">
<title>cluster_user</title>
<path fill="white" stroke="#e0e0e0" d="M1268,-977.88C1268,-977.88 1535,-977.88 1535,-977.88 1541,-977.88 1547,-983.88 1547,-989.88 1547,-989.88 1547,-1051.65 1547,-1051.65 1547,-1057.65 1541,-1063.65 1535,-1063.65 1535,-1063.65 1268,-1063.65 1268,-1063.65 1262,-1063.65 1256,-1057.65 1256,-1051.65 1256,-1051.65 1256,-989.88 1256,-989.88 1256,-983.88 1262,-977.88 1268,-977.88"/>
<text text-anchor="middle" x="1289.5" y="-1047.3" font-family="Helvetica Neue" font-size="13.00" fill="#333333">用户接入</text>
</g>
<g id="clust2" class="cluster">
<title>cluster_gateway</title>
<path fill="white" stroke="#e0e0e0" d="M1286,-873.11C1286,-873.11 1568,-873.11 1568,-873.11 1574,-873.11 1580,-879.11 1580,-885.11 1580,-885.11 1580,-946.88 1580,-946.88 1580,-952.88 1574,-958.88 1568,-958.88 1568,-958.88 1286,-958.88 1286,-958.88 1280,-958.88 1274,-952.88 1274,-946.88 1274,-946.88 1274,-885.11 1274,-885.11 1274,-879.11 1280,-873.11 1286,-873.11"/>
<text text-anchor="middle" x="1334.5" y="-942.53" font-family="Helvetica Neue" font-size="13.00" fill="#333333">网关层 &#160;gateway/</text>
</g>
<g id="clust3" class="cluster">
<title>cluster_agent</title>
<path fill="white" stroke="#e0e0e0" d="M944,-727.34C944,-727.34 1124,-727.34 1124,-727.34 1130,-727.34 1136,-733.34 1136,-739.34 1136,-739.34 1136,-831.86 1136,-831.86 1136,-837.86 1130,-843.86 1124,-843.86 1124,-843.86 944,-843.86 944,-843.86 938,-843.86 932,-837.86 932,-831.86 932,-831.86 932,-739.34 932,-739.34 932,-733.34 938,-727.34 944,-727.34"/>
<text text-anchor="middle" x="974.5" y="-827.51" font-family="Helvetica Neue" font-size="13.00" fill="#333333">Agent 核心</text>
</g>
<g id="clust4" class="cluster">
<title>cluster_llm</title>
<path fill="white" stroke="#e0e0e0" d="M1313,-455.55C1313,-455.55 1429,-455.55 1429,-455.55 1435,-455.55 1441,-461.55 1441,-467.55 1441,-467.55 1441,-546.57 1441,-546.57 1441,-552.57 1435,-558.57 1429,-558.57 1429,-558.57 1313,-558.57 1313,-558.57 1307,-558.57 1301,-552.57 1301,-546.57 1301,-546.57 1301,-467.55 1301,-467.55 1301,-461.55 1307,-455.55 1313,-455.55"/>
<text text-anchor="middle" x="1330.75" y="-542.22" font-family="Helvetica Neue" font-size="13.00" fill="#333333">LLM 层</text>
</g>
<g id="clust5" class="cluster">
<title>cluster_tools</title>
<path fill="white" stroke="#e0e0e0" d="M467,-566.57C467,-566.57 1372,-566.57 1372,-566.57 1378,-566.57 1384,-572.57 1384,-578.57 1384,-578.57 1384,-683.84 1384,-683.84 1384,-689.84 1378,-695.84 1372,-695.84 1372,-695.84 467,-695.84 467,-695.84 461,-695.84 455,-689.84 455,-683.84 455,-683.84 455,-578.57 455,-578.57 455,-572.57 461,-566.57 467,-566.57"/>
<text text-anchor="middle" x="526" y="-679.49" font-family="Helvetica Neue" font-size="13.00" fill="#333333">工具层 &#160;tools/ &#160;(8 个)</text>
</g>
<g id="clust6" class="cluster">
<title>cluster_tools_local</title>
<polygon fill="white" stroke="#bdbdbd" stroke-dasharray="5,2" points="987,-574.57 987,-660.34 1376,-660.34 1376,-574.57 987,-574.57"/>
<text text-anchor="middle" x="1020.5" y="-643.99" font-family="Helvetica Neue" font-size="13.00" fill="#333333">本地工具</text>
</g>
<g id="clust7" class="cluster">
<title>cluster_tools_memory</title>
<polygon fill="white" stroke="#bdbdbd" stroke-dasharray="5,2" points="463,-576.45 463,-658.47 733,-658.47 733,-576.45 463,-576.45"/>
<text text-anchor="middle" x="496.5" y="-642.12" font-family="Helvetica Neue" font-size="13.00" fill="#333333">记忆工具</text>
</g>
<g id="clust8" class="cluster">
<title>cluster_tools_remote</title>
<polygon fill="white" stroke="#bdbdbd" stroke-dasharray="5,2" points="741,-576.45 741,-658.47 979,-658.47 979,-576.45 741,-576.45"/>
<text text-anchor="middle" x="774.5" y="-642.12" font-family="Helvetica Neue" font-size="13.00" fill="#333333">远程调用</text>
</g>
<g id="clust9" class="cluster">
<title>cluster_palace</title>
<path fill="white" stroke="#e0e0e0" d="M20,-8C20,-8 762,-8 762,-8 768,-8 774,-14 774,-20 774,-20 774,-435.55 774,-435.55 774,-441.55 768,-447.55 762,-447.55 762,-447.55 20,-447.55 20,-447.55 14,-447.55 8,-441.55 8,-435.55 8,-435.55 8,-20 8,-20 8,-14 14,-8 20,-8"/>
<text text-anchor="middle" x="128.12" y="-431.2" font-family="Helvetica Neue" font-size="13.00" fill="#333333">丽泽SOHO双塔DNA记忆系统 &#160;palace/</text>
</g>
<g id="clust10" class="cluster">
<title>cluster_palace_write</title>
<polygon fill="white" stroke="#7986cb" stroke-dasharray="5,2" points="254,-140.12 254,-332.53 482,-332.53 482,-140.12 254,-140.12"/>
<text text-anchor="middle" x="287.5" y="-316.18" font-family="Helvetica Neue" font-size="13.00" fill="#333333">写入路径</text>
</g>
<g id="clust11" class="cluster">
<title>cluster_palace_read</title>
<polygon fill="white" stroke="#7986cb" stroke-dasharray="5,2" points="490,-246.76 490,-332.53 728,-332.53 728,-246.76 490,-246.76"/>
<text text-anchor="middle" x="523.5" y="-316.18" font-family="Helvetica Neue" font-size="13.00" fill="#333333">读取路径</text>
</g>
<g id="clust12" class="cluster">
<title>cluster_palace_infra</title>
<polygon fill="white" stroke="#7986cb" stroke-dasharray="5,2" points="490,-16 490,-225.89 766,-225.89 766,-16 490,-16"/>
<text text-anchor="middle" x="523.5" y="-209.54" font-family="Helvetica Neue" font-size="13.00" fill="#333333">基础设施</text>
</g>
<g id="clust13" class="cluster">
<title>cluster_palace_guard</title>
<polygon fill="white" stroke="#ef5350" stroke-dasharray="5,2" points="16,-19.47 16,-227.76 246,-227.76 246,-19.47 16,-19.47"/>
<text text-anchor="middle" x="55.88" y="-211.41" font-family="Helvetica Neue" font-size="13.00" fill="#333333">防锈三道闸</text>
</g>
<g id="clust14" class="cluster">
<title>cluster_external</title>
<path fill="white" stroke="#e0e0e0" d="M797,-19.47C797,-19.47 1522,-19.47 1522,-19.47 1528,-19.47 1534,-25.47 1534,-31.47 1534,-31.47 1534,-96.99 1534,-96.99 1534,-102.99 1528,-108.99 1522,-108.99 1522,-108.99 797,-108.99 797,-108.99 791,-108.99 785,-102.99 785,-96.99 785,-96.99 785,-31.47 785,-31.47 785,-25.47 791,-19.47 797,-19.47"/>
<text text-anchor="middle" x="818.5" y="-92.64" font-family="Helvetica Neue" font-size="13.00" fill="#333333">外部服务</text>
</g>
<!-- telegram -->
<g id="node1" class="node">
<title>telegram</title>
<polygon fill="#e3f2fd" stroke="#1976d2" points="1449.92,-1026.28 1264.08,-1026.28 1264.08,-987.76 1449.92,-987.76 1449.92,-1026.28"/>
<text text-anchor="middle" x="1357" y="-1010.07" font-family="Helvetica Neue" font-size="11.00">Telegram</text>
<text text-anchor="middle" x="1357" y="-996.57" font-family="Helvetica Neue" font-size="11.00">@xingzhiqiang_claude_fst_bot</text>
</g>
<!-- gw_telegram -->
<g id="node3" class="node">
<title>gw_telegram</title>
<polygon fill="#e8f5e9" stroke="#388e3c" points="1422.05,-923.38 1281.95,-923.38 1281.95,-881.11 1422.05,-881.11 1422.05,-923.38"/>
<text text-anchor="middle" x="1352" y="-907.17" font-family="Helvetica Neue" font-size="11.00">telegram.py</text>
<text text-anchor="middle" x="1352" y="-893.67" font-family="Helvetica Neue" font-size="11.00">长轮询 + HTML 格式化</text>
</g>
<!-- telegram&#45;&gt;gw_telegram -->
<g id="edge1" class="edge">
<title>telegram&#45;&gt;gw_telegram</title>
<path fill="none" stroke="#666666" d="M1356.11,-987.64C1355.39,-973.01 1354.38,-952.18 1353.54,-934.87"/>
<polygon fill="#666666" stroke="#666666" points="1357.04,-934.9 1353.06,-925.09 1350.05,-935.24 1357.04,-934.9"/>
</g>
<!-- cli -->
<g id="node2" class="node">
<title>cli</title>
<polygon fill="#e3f2fd" stroke="#1976d2" points="1538.55,-1028.15 1467.45,-1028.15 1467.45,-985.88 1538.55,-985.88 1538.55,-1028.15"/>
<text text-anchor="middle" x="1503" y="-1011.94" font-family="Helvetica Neue" font-size="11.00">CLI REPL</text>
<text text-anchor="middle" x="1503" y="-998.44" font-family="Helvetica Neue" font-size="11.00">Rich 终端</text>
</g>
<!-- gw_cli -->
<g id="node4" class="node">
<title>gw_cli</title>
<polygon fill="#e8f5e9" stroke="#388e3c" points="1571.55,-923.38 1440.45,-923.38 1440.45,-881.11 1571.55,-881.11 1571.55,-923.38"/>
<text text-anchor="middle" x="1506" y="-907.17" font-family="Helvetica Neue" font-size="11.00">cli.py</text>
<text text-anchor="middle" x="1506" y="-893.67" font-family="Helvetica Neue" font-size="11.00">Rich Markdown 渲染</text>
</g>
<!-- cli&#45;&gt;gw_cli -->
<g id="edge2" class="edge">
<title>cli&#45;&gt;gw_cli</title>
<path fill="none" stroke="#666666" d="M1503.59,-985.71C1504.01,-971.31 1504.59,-951.69 1505.07,-935.2"/>
<polygon fill="#666666" stroke="#666666" points="1508.56,-935.47 1505.35,-925.37 1501.56,-935.27 1508.56,-935.47"/>
</g>
<!-- agent -->
<g id="node5" class="node">
<title>agent</title>
<polygon fill="#fff9c4" stroke="#f9a825" stroke-width="2" points="1128.05,-808.36 939.95,-808.36 939.95,-735.34 1128.05,-735.34 1128.05,-808.36"/>
<text text-anchor="middle" x="1034" y="-792.15" font-family="Helvetica Neue" font-size="11.00">agent.py</text>
<text text-anchor="middle" x="1034" y="-778.65" font-family="Helvetica Neue" font-size="11.00">chat loop</text>
<text text-anchor="middle" x="1034" y="-765.15" font-family="Helvetica Neue" font-size="11.00">tool dispatch (并行, max 10轮)</text>
<text text-anchor="middle" x="1034" y="-747.9" font-family="Helvetica Neue" font-size="11.00">session 管理 (max 40条)</text>
</g>
<!-- gw_telegram&#45;&gt;agent -->
<g id="edge3" class="edge">
<title>gw_telegram&#45;&gt;agent</title>
<path fill="none" stroke="#666666" d="M1300.91,-880.62C1256.21,-862.57 1189.97,-835.83 1134.66,-813.5"/>
<polygon fill="#666666" stroke="#666666" points="1136.1,-810.3 1125.52,-809.8 1133.48,-816.79 1136.1,-810.3"/>
<text text-anchor="middle" x="1262.88" y="-854.56" font-family="Helvetica Neue" font-size="9.00">chat()</text>
</g>
<!-- telegram_api -->
<g id="node32" class="node">
<title>telegram_api</title>
<polygon fill="#e0f7fa" stroke="#00838f" points="1526.3,-68.48 1415.7,-68.48 1411.7,-64.48 1411.7,-32.48 1522.3,-32.48 1526.3,-36.48 1526.3,-68.48"/>
<polyline fill="none" stroke="#00838f" points="1522.3,-64.48 1411.7,-64.48"/>
<polyline fill="none" stroke="#00838f" points="1522.3,-64.48 1522.3,-32.48"/>
<polyline fill="none" stroke="#00838f" points="1522.3,-64.48 1526.3,-68.48"/>
<text text-anchor="middle" x="1469" y="-46.78" font-family="Helvetica Neue" font-size="11.00">Telegram Bot API</text>
</g>
<!-- gw_telegram&#45;&gt;telegram_api -->
<g id="edge18" class="edge">
<title>gw_telegram&#45;&gt;telegram_api</title>
<path fill="none" stroke="#666666" d="M1391.29,-880.69C1426.62,-859.05 1473,-821.4 1473,-772.85 1473,-772.85 1473,-772.85 1473,-168.25 1473,-138.2 1471.66,-103.81 1470.53,-80.18"/>
<polygon fill="#666666" stroke="#666666" points="1474.04,-80.21 1470.04,-70.4 1467.05,-80.56 1474.04,-80.21"/>
<text text-anchor="middle" x="1486.5" y="-389.12" font-family="Helvetica Neue" font-size="9.00">长轮询</text>
</g>
<!-- gw_cli&#45;&gt;agent -->
<g id="edge4" class="edge">
<title>gw_cli&#45;&gt;agent</title>
<path fill="none" stroke="#666666" d="M1453.4,-880.67C1445.93,-878 1438.3,-875.4 1431,-873.11 1333.48,-842.61 1220.31,-814.75 1139.81,-796.19"/>
<polygon fill="#666666" stroke="#666666" points="1140.68,-792.79 1130.15,-793.97 1139.11,-799.62 1140.68,-792.79"/>
<text text-anchor="middle" x="1401.88" y="-854.56" font-family="Helvetica Neue" font-size="9.00">chat()</text>
</g>
<!-- llm -->
<g id="node6" class="node">
<title>llm</title>
<polygon fill="#f3e5f5" stroke="#7b1fa2" points="1432.8,-523.07 1309.2,-523.07 1309.2,-463.55 1432.8,-463.55 1432.8,-523.07"/>
<text text-anchor="middle" x="1371" y="-506.86" font-family="Helvetica Neue" font-size="11.00">llm.py</text>
<text text-anchor="middle" x="1371" y="-493.36" font-family="Helvetica Neue" font-size="11.00">LiteLLM 多模型路由</text>
<text text-anchor="middle" x="1371" y="-476.11" font-family="Helvetica Neue" font-size="11.00">重试 + fallback</text>
</g>
<!-- agent&#45;&gt;llm -->
<g id="edge5" class="edge">
<title>agent&#45;&gt;llm</title>
<path fill="none" stroke="#666666" d="M1128.75,-763.44C1220.1,-754.1 1348.94,-734.36 1380,-695.84 1416.68,-650.35 1401.72,-578.55 1386.86,-534.05"/>
<polygon fill="#666666" stroke="#666666" points="1390.22,-533.07 1383.61,-524.79 1383.62,-535.39 1390.22,-533.07"/>
<text text-anchor="middle" x="1397.88" y="-707.67" font-family="Helvetica Neue" font-size="9.00">completion()</text>
</g>
<!-- tool_shell -->
<g id="node7" class="node">
<title>tool_shell</title>
<polygon fill="#fce4ec" stroke="#c62828" points="1072.92,-624.84 995.08,-624.84 995.08,-582.57 1072.92,-582.57 1072.92,-624.84"/>
<text text-anchor="middle" x="1034" y="-608.63" font-family="Helvetica Neue" font-size="11.00">shell</text>
<text text-anchor="middle" x="1034" y="-595.13" font-family="Helvetica Neue" font-size="11.00">白名单命令</text>
</g>
<!-- agent&#45;&gt;tool_shell -->
<g id="edge7" class="edge">
<title>agent&#45;&gt;tool_shell</title>
<path fill="none" stroke="#666666" d="M1034,-734.39C1034,-726.08 1034,-716.85 1034,-707.25"/>
<polygon fill="#666666" stroke="#666666" points="1037.5,-707.35 1034,-697.35 1030.5,-707.35 1037.5,-707.35"/>
<text text-anchor="middle" x="1052" y="-708.79" font-family="Helvetica Neue" font-size="9.00">并行调用</text>
</g>
<!-- tool_code -->
<g id="node8" class="node">
<title>tool_code</title>
<polygon fill="#fce4ec" stroke="#c62828" points="1165.05,-624.84 1090.95,-624.84 1090.95,-582.57 1165.05,-582.57 1165.05,-624.84"/>
<text text-anchor="middle" x="1128" y="-608.63" font-family="Helvetica Neue" font-size="11.00">code</text>
<text text-anchor="middle" x="1128" y="-595.13" font-family="Helvetica Neue" font-size="11.00">读/写/搜索</text>
</g>
<!-- agent&#45;&gt;tool_code -->
<!-- tool_calendar -->
<g id="node9" class="node">
<title>tool_calendar</title>
<polygon fill="#fce4ec" stroke="#c62828" points="1266.92,-624.84 1183.08,-624.84 1183.08,-582.57 1266.92,-582.57 1266.92,-624.84"/>
<text text-anchor="middle" x="1225" y="-608.63" font-family="Helvetica Neue" font-size="11.00">calendar</text>
<text text-anchor="middle" x="1225" y="-595.13" font-family="Helvetica Neue" font-size="11.00">SQLite 提醒</text>
</g>
<!-- agent&#45;&gt;tool_calendar -->
<!-- tool_web -->
<g id="node10" class="node">
<title>tool_web</title>
<polygon fill="#fce4ec" stroke="#c62828" points="1367.55,-624.84 1284.45,-624.84 1284.45,-582.57 1367.55,-582.57 1367.55,-624.84"/>
<text text-anchor="middle" x="1326" y="-608.63" font-family="Helvetica Neue" font-size="11.00">web</text>
<text text-anchor="middle" x="1326" y="-595.13" font-family="Helvetica Neue" font-size="11.00">搜索 + 抓取</text>
</g>
<!-- agent&#45;&gt;tool_web -->
<g id="edge10" class="edge">
<title>agent&#45;&gt;tool_web</title>
<path fill="none" stroke="#666666" d="M1129.04,-758.67C1177.29,-748.49 1234.35,-729.85 1276,-695.84 1295.02,-680.31 1307.94,-655.55 1315.88,-635.75"/>
<polygon fill="#666666" stroke="#666666" points="1319.12,-637.08 1319.35,-626.48 1312.57,-634.62 1319.12,-637.08"/>
</g>
<!-- tool_memory -->
<g id="node11" class="node">
<title>tool_memory</title>
<polygon fill="#fce4ec" stroke="#c62828" points="590.92,-622.97 471.07,-622.97 471.07,-584.45 590.92,-584.45 590.92,-622.97"/>
<text text-anchor="middle" x="531" y="-606.76" font-family="Helvetica Neue" font-size="11.00">memory</text>
<text text-anchor="middle" x="531" y="-593.26" font-family="Helvetica Neue" font-size="11.00">remember / recall</text>
</g>
<!-- agent&#45;&gt;tool_memory -->
<g id="edge11" class="edge">
<title>agent&#45;&gt;tool_memory</title>
<path fill="none" stroke="#666666" d="M939.25,-762.64C829.19,-751.7 655.59,-729.69 600,-695.84 575.64,-681.01 556.88,-654.11 545.12,-633.36"/>
<polygon fill="#666666" stroke="#666666" points="548.32,-631.92 540.48,-624.79 542.16,-635.26 548.32,-631.92"/>
</g>
<!-- tool_palace -->
<g id="node12" class="node">
<title>tool_palace</title>
<polygon fill="#fce4ec" stroke="#c62828" points="725.42,-622.97 608.58,-622.97 608.58,-584.45 725.42,-584.45 725.42,-622.97"/>
<text text-anchor="middle" x="667" y="-606.76" font-family="Helvetica Neue" font-size="11.00">palace_tool</text>
<text text-anchor="middle" x="667" y="-593.26" font-family="Helvetica Neue" font-size="11.00">list / show / stats</text>
</g>
<!-- agent&#45;&gt;tool_palace -->
<!-- tool_ontology -->
<g id="node13" class="node">
<title>tool_ontology</title>
<polygon fill="#fce4ec" stroke="#c62828" points="854.8,-622.97 749.2,-622.97 749.2,-584.45 854.8,-584.45 854.8,-622.97"/>
<text text-anchor="middle" x="802" y="-606.76" font-family="Helvetica Neue" font-size="11.00">ontology</text>
<text text-anchor="middle" x="802" y="-593.26" font-family="Helvetica Neue" font-size="11.00">13 ops → :8003</text>
</g>
<!-- agent&#45;&gt;tool_ontology -->
<g id="edge13" class="edge">
<title>agent&#45;&gt;tool_ontology</title>
<path fill="none" stroke="#666666" d="M939.08,-740C913.02,-728.72 885.94,-714.11 864,-695.84 843.43,-678.71 826.83,-653.1 816,-633.38"/>
<polygon fill="#666666" stroke="#666666" points="819.21,-631.95 811.44,-624.75 813.02,-635.22 819.21,-631.95"/>
</g>
<!-- tool_neural -->
<g id="node14" class="node">
<title>tool_neural</title>
<polygon fill="#fce4ec" stroke="#c62828" points="971.42,-622.97 872.58,-622.97 872.58,-584.45 971.42,-584.45 971.42,-622.97"/>
<text text-anchor="middle" x="922" y="-606.76" font-family="Helvetica Neue" font-size="11.00">neural_twin</text>
<text text-anchor="middle" x="922" y="-593.26" font-family="Helvetica Neue" font-size="11.00">4 ops → :8004</text>
</g>
<!-- agent&#45;&gt;tool_neural -->
<g id="edge14" class="edge">
<title>agent&#45;&gt;tool_neural</title>
<path fill="none" stroke="#666666" d="M1009.3,-734.64C1000.93,-722.34 991.54,-708.51 983,-695.84 968.72,-674.67 952.65,-650.66 940.59,-632.6"/>
<polygon fill="#666666" stroke="#666666" points="943.65,-630.87 935.18,-624.49 937.82,-634.76 943.65,-630.87"/>
</g>
<!-- palace_facade -->
<g id="node15" class="node">
<title>palace_facade</title>
<polygon fill="#c5cae9" stroke="#283593" stroke-width="2" points="592.42,-412.05 469.57,-412.05 469.57,-369.78 592.42,-369.78 592.42,-412.05"/>
<text text-anchor="middle" x="531" y="-395.84" font-family="Helvetica Neue" font-size="11.00">MemoryPalace</text>
<text text-anchor="middle" x="531" y="-382.34" font-family="Helvetica Neue" font-size="11.00">门面 + Agent shim</text>
</g>
<!-- agent&#45;&gt;palace_facade -->
<g id="edge19" class="edge">
<title>agent&#45;&gt;palace_facade</title>
<path fill="none" stroke="#283593" d="M939.19,-769.08C741.76,-764.35 301.33,-748.02 259.5,-695.84 187.51,-606.05 261.15,-520.73 356,-455.55 386.52,-434.58 424.77,-419.64 457.71,-409.52"/>
<polygon fill="#283593" stroke="#283593" points="458.62,-412.91 467.21,-406.71 456.63,-406.19 458.62,-412.91"/>
<text text-anchor="middle" x="303.25" y="-607.53" font-family="Helvetica Neue" font-size="9.00" fill="#283593">assemble_context()</text>
<text text-anchor="middle" x="303.25" y="-596.28" font-family="Helvetica Neue" font-size="9.00" fill="#283593">(每轮对话前)</text>
</g>
<!-- agent&#45;&gt;palace_facade -->
<g id="edge20" class="edge">
<title>agent&#45;&gt;palace_facade</title>
<path fill="none" stroke="#283593" stroke-dasharray="5,2" d="M939.25,-766.81C767.3,-758.48 418.18,-736.71 381.75,-695.84 305.19,-609.97 432.92,-477.76 497.33,-420.26"/>
<polygon fill="#283593" stroke="#283593" points="499.27,-423.21 504.46,-413.97 494.64,-417.96 499.27,-423.21"/>
<text text-anchor="middle" x="419.62" y="-607.53" font-family="Helvetica Neue" font-size="9.00" fill="#283593">archive_session()</text>
<text text-anchor="middle" x="419.62" y="-596.28" font-family="Helvetica Neue" font-size="9.00" fill="#283593">(异步, 对话后)</text>
</g>
<!-- deepseek -->
<g id="node27" class="node">
<title>deepseek</title>
<polygon fill="#e0f7fa" stroke="#00838f" points="1393.92,-69.74 1296.08,-69.74 1292.08,-65.74 1292.08,-31.22 1389.92,-31.22 1393.92,-35.22 1393.92,-69.74"/>
<polyline fill="none" stroke="#00838f" points="1389.92,-65.74 1292.08,-65.74"/>
<polyline fill="none" stroke="#00838f" points="1389.92,-65.74 1389.92,-31.22"/>
<polyline fill="none" stroke="#00838f" points="1389.92,-65.74 1393.92,-69.74"/>
<text text-anchor="middle" x="1343" y="-53.53" font-family="Helvetica Neue" font-size="11.00">DeepSeek API</text>
<text text-anchor="middle" x="1343" y="-40.03" font-family="Helvetica Neue" font-size="11.00">deepseek&#45;chat</text>
</g>
<!-- llm&#45;&gt;deepseek -->
<g id="edge6" class="edge">
<title>llm&#45;&gt;deepseek</title>
<path fill="none" stroke="#666666" d="M1364.94,-463.27C1359.38,-434.07 1352,-387.7 1352,-347.16 1352,-347.16 1352,-347.16 1352,-168.25 1352,-138.64 1349.09,-104.94 1346.58,-81.38"/>
<polygon fill="#666666" stroke="#666666" points="1350.07,-81.11 1345.49,-71.56 1343.11,-81.88 1350.07,-81.11"/>
<text text-anchor="middle" x="1363.25" y="-272.97" font-family="Helvetica Neue" font-size="9.00">HTTP</text>
</g>
<!-- duckduckgo -->
<g id="node31" class="node">
<title>duckduckgo</title>
<polygon fill="#e0f7fa" stroke="#00838f" points="1274.3,-71.62 1187.7,-71.62 1183.7,-67.62 1183.7,-29.35 1270.3,-29.35 1274.3,-33.35 1274.3,-71.62"/>
<polyline fill="none" stroke="#00838f" points="1270.3,-67.62 1183.7,-67.62"/>
<polyline fill="none" stroke="#00838f" points="1270.3,-67.62 1270.3,-29.35"/>
<polyline fill="none" stroke="#00838f" points="1270.3,-67.62 1274.3,-71.62"/>
<text text-anchor="middle" x="1229" y="-55.41" font-family="Helvetica Neue" font-size="11.00">DuckDuckGo</text>
<text text-anchor="middle" x="1229" y="-41.91" font-family="Helvetica Neue" font-size="11.00">搜索 API</text>
</g>
<!-- tool_web&#45;&gt;duckduckgo -->
<g id="edge17" class="edge">
<title>tool_web&#45;&gt;duckduckgo</title>
<path fill="none" stroke="#666666" d="M1310.6,-582.44C1305.68,-575.21 1300.59,-566.81 1297,-558.57 1266.51,-488.66 1256,-468.19 1256,-391.92 1256,-391.92 1256,-391.92 1256,-168.25 1256,-138.7 1247.69,-106.01 1240.29,-82.75"/>
<polygon fill="#666666" stroke="#666666" points="1243.62,-81.65 1237.14,-73.26 1236.97,-83.85 1243.62,-81.65"/>
<text text-anchor="middle" x="1267.25" y="-272.97" font-family="Helvetica Neue" font-size="9.00">HTTP</text>
</g>
<!-- tool_memory&#45;&gt;palace_facade -->
<g id="edge36" class="edge">
<title>tool_memory&#45;&gt;palace_facade</title>
<path fill="none" stroke="#666666" d="M531,-584C531,-548.01 531,-468.73 531,-424.09"/>
<polygon fill="#666666" stroke="#666666" points="534.5,-424.26 531,-414.26 527.5,-424.26 534.5,-424.26"/>
<text text-anchor="middle" x="568.12" y="-490.39" font-family="Helvetica Neue" font-size="9.00">remember/recall</text>
</g>
<!-- tool_palace&#45;&gt;palace_facade -->
<g id="edge37" class="edge">
<title>tool_palace&#45;&gt;palace_facade</title>
<path fill="none" stroke="#666666" d="M662.89,-584.02C655.73,-554.52 638.81,-496.35 609,-455.55 599.21,-442.15 585.95,-429.94 573.15,-419.87"/>
<polygon fill="#666666" stroke="#666666" points="575.25,-417.08 565.16,-413.85 571.04,-422.67 575.25,-417.08"/>
<text text-anchor="middle" x="686.88" y="-490.39" font-family="Helvetica Neue" font-size="9.00">list/show/stats</text>
</g>
<!-- ontology_engine -->
<g id="node29" class="node">
<title>ontology_engine</title>
<polygon fill="#e0f7fa" stroke="#00838f" points="1044.67,-69.74 939.33,-69.74 935.33,-65.74 935.33,-31.22 1040.67,-31.22 1044.67,-35.22 1044.67,-69.74"/>
<polyline fill="none" stroke="#00838f" points="1040.67,-65.74 935.33,-65.74"/>
<polyline fill="none" stroke="#00838f" points="1040.67,-65.74 1040.67,-31.22"/>
<polyline fill="none" stroke="#00838f" points="1040.67,-65.74 1044.67,-69.74"/>
<text text-anchor="middle" x="990" y="-53.53" font-family="Helvetica Neue" font-size="11.00">ontology&#45;engine</text>
<text text-anchor="middle" x="990" y="-40.03" font-family="Helvetica Neue" font-size="11.00">:8003 &#160;launchd</text>
</g>
<!-- tool_ontology&#45;&gt;ontology_engine -->
<g id="edge15" class="edge">
<title>tool_ontology&#45;&gt;ontology_engine</title>
<path fill="none" stroke="#666666" d="M813.71,-584.06C835.03,-548.26 878,-466.8 878,-391.92 878,-391.92 878,-391.92 878,-168.25 878,-156.29 927.55,-108.58 960.74,-77.97"/>
<polygon fill="#666666" stroke="#666666" points="963.08,-80.57 968.08,-71.23 958.35,-75.41 963.08,-80.57"/>
<text text-anchor="middle" x="889.25" y="-272.97" font-family="Helvetica Neue" font-size="9.00">HTTP</text>
</g>
<!-- neural_twin_svc -->
<g id="node30" class="node">
<title>neural_twin_svc</title>
<polygon fill="#e0f7fa" stroke="#00838f" points="1165.3,-69.74 1066.7,-69.74 1062.7,-65.74 1062.7,-31.22 1161.3,-31.22 1165.3,-35.22 1165.3,-69.74"/>
<polyline fill="none" stroke="#00838f" points="1161.3,-65.74 1062.7,-65.74"/>
<polyline fill="none" stroke="#00838f" points="1161.3,-65.74 1161.3,-31.22"/>
<polyline fill="none" stroke="#00838f" points="1161.3,-65.74 1165.3,-69.74"/>
<text text-anchor="middle" x="1114" y="-53.53" font-family="Helvetica Neue" font-size="11.00">neural&#45;twin</text>
<text text-anchor="middle" x="1114" y="-40.03" font-family="Helvetica Neue" font-size="11.00">:8004 &#160;launchd</text>
</g>
<!-- tool_neural&#45;&gt;neural_twin_svc -->
<g id="edge16" class="edge">
<title>tool_neural&#45;&gt;neural_twin_svc</title>
<path fill="none" stroke="#666666" d="M936.53,-584.17C962.69,-548.89 1015,-468.72 1015,-391.92 1015,-391.92 1015,-391.92 1015,-168.25 1015,-156.96 1058.66,-109.16 1088,-78.33"/>
<polygon fill="#666666" stroke="#666666" points="1090.41,-80.87 1094.8,-71.22 1085.35,-76.03 1090.41,-80.87"/>
<text text-anchor="middle" x="1026.25" y="-272.97" font-family="Helvetica Neue" font-size="9.00">HTTP</text>
</g>
<!-- writer -->
<g id="node18" class="node">
<title>writer</title>
<polygon fill="#c5cae9" stroke="#283593" points="467.55,-297.03 378.45,-297.03 378.45,-254.76 467.55,-254.76 467.55,-297.03"/>
<text text-anchor="middle" x="423" y="-280.82" font-family="Helvetica Neue" font-size="11.00">writer</text>
<text text-anchor="middle" x="423" y="-267.32" font-family="Helvetica Neue" font-size="11.00">归档 pipeline</text>
</g>
<!-- palace_facade&#45;&gt;writer -->
<g id="edge23" class="edge">
<title>palace_facade&#45;&gt;writer</title>
<path fill="none" stroke="#666666" d="M510.94,-368.92C493.93,-351.13 469.38,-325.43 450.54,-305.71"/>
<polygon fill="#666666" stroke="#666666" points="453.07,-303.3 443.63,-298.49 448.01,-308.14 453.07,-303.3"/>
<text text-anchor="middle" x="508.5" y="-343.23" font-family="Helvetica Neue" font-size="9.00">archive</text>
</g>
<!-- retriever -->
<g id="node19" class="node">
<title>retriever</title>
<polygon fill="#c5cae9" stroke="#283593" points="719.55,-295.16 612.45,-295.16 612.45,-256.64 719.55,-256.64 719.55,-295.16"/>
<text text-anchor="middle" x="666" y="-278.95" font-family="Helvetica Neue" font-size="11.00">retriever</text>
<text text-anchor="middle" x="666" y="-265.45" font-family="Helvetica Neue" font-size="11.00">vec+FTS → RRF</text>
</g>
<!-- palace_facade&#45;&gt;retriever -->
<g id="edge21" class="edge">
<title>palace_facade&#45;&gt;retriever</title>
<path fill="none" stroke="#666666" d="M585.58,-368.91C594.9,-364.05 604.11,-358.34 612,-351.78 627.58,-338.85 640.93,-320.44 650.46,-305.12"/>
<polygon fill="#666666" stroke="#666666" points="653.26,-307.26 655.38,-296.88 647.25,-303.67 653.26,-307.26"/>
<text text-anchor="middle" x="637" y="-343.23" font-family="Helvetica Neue" font-size="9.00">search</text>
</g>
<!-- atrium -->
<g id="node20" class="node">
<title>atrium</title>
<polygon fill="#c5cae9" stroke="#283593" points="594.3,-297.03 497.7,-297.03 497.7,-254.76 594.3,-254.76 594.3,-297.03"/>
<text text-anchor="middle" x="546" y="-280.82" font-family="Helvetica Neue" font-size="11.00">atrium</text>
<text text-anchor="middle" x="546" y="-267.32" font-family="Helvetica Neue" font-size="11.00">规则/偏好/事实</text>
</g>
<!-- palace_facade&#45;&gt;atrium -->
<g id="edge22" class="edge">
<title>palace_facade&#45;&gt;atrium</title>
<path fill="none" stroke="#666666" d="M533.79,-368.92C536.03,-352.01 539.22,-327.95 541.78,-308.67"/>
<polygon fill="#666666" stroke="#666666" points="545.23,-309.27 543.08,-298.9 538.29,-308.35 545.23,-309.27"/>
<text text-anchor="middle" x="572.25" y="-343.23" font-family="Helvetica Neue" font-size="9.00">assemble_block</text>
</g>
<!-- chunker -->
<g id="node16" class="node">
<title>chunker</title>
<polygon fill="#c5cae9" stroke="#283593" points="354.05,-190.39 261.95,-190.39 261.95,-148.12 354.05,-148.12 354.05,-190.39"/>
<text text-anchor="middle" x="308" y="-174.18" font-family="Helvetica Neue" font-size="11.00">chunker</text>
<text text-anchor="middle" x="308" y="-160.68" font-family="Helvetica Neue" font-size="11.00">LLM 分段摘要</text>
</g>
<!-- router -->
<g id="node17" class="node">
<title>router</title>
<polygon fill="#c5cae9" stroke="#283593" points="473.55,-190.39 372.45,-190.39 372.45,-148.12 473.55,-148.12 473.55,-190.39"/>
<text text-anchor="middle" x="423" y="-174.18" font-family="Helvetica Neue" font-size="11.00">router</text>
<text text-anchor="middle" x="423" y="-160.68" font-family="Helvetica Neue" font-size="11.00">LLM 话题→房间</text>
</g>
<!-- writer&#45;&gt;chunker -->
<g id="edge24" class="edge">
<title>writer&#45;&gt;chunker</title>
<path fill="none" stroke="#666666" d="M395.15,-254.34C384.79,-246.35 373.11,-236.93 363,-227.76 353.13,-218.81 342.89,-208.44 333.96,-198.99"/>
<polygon fill="#666666" stroke="#666666" points="336.58,-196.67 327.2,-191.74 331.46,-201.44 336.58,-196.67"/>
</g>
<!-- writer&#45;&gt;router -->
<g id="edge25" class="edge">
<title>writer&#45;&gt;router</title>
<path fill="none" stroke="#666666" d="M423,-254.47C423,-239.49 423,-218.87 423,-201.78"/>
<polygon fill="#666666" stroke="#666666" points="426.5,-202.14 423,-192.14 419.5,-202.14 426.5,-202.14"/>
</g>
<!-- store -->
<g id="node21" class="node">
<title>store</title>
<polygon fill="#c5cae9" stroke="#283593" points="617.92,-188.51 498.07,-188.51 498.07,-149.99 617.92,-149.99 617.92,-188.51"/>
<text text-anchor="middle" x="558" y="-172.3" font-family="Helvetica Neue" font-size="11.00">store.py</text>
<text text-anchor="middle" x="558" y="-158.8" font-family="Helvetica Neue" font-size="11.00">apsw + sqlite&#45;vec</text>
</g>
<!-- writer&#45;&gt;store -->
<g id="edge27" class="edge">
<title>writer&#45;&gt;store</title>
<path fill="none" stroke="#666666" d="M450.74,-254.44C461.77,-246.22 474.54,-236.62 486,-227.76 499.34,-217.45 513.9,-205.88 526.42,-195.83"/>
<polygon fill="#666666" stroke="#666666" points="528.35,-198.77 533.95,-189.78 523.96,-193.32 528.35,-198.77"/>
</g>
<!-- embedder -->
<g id="node22" class="node">
<title>embedder</title>
<polygon fill="#c5cae9" stroke="#283593" points="758.42,-190.39 635.58,-190.39 635.58,-148.12 758.42,-148.12 758.42,-190.39"/>
<text text-anchor="middle" x="697" y="-174.18" font-family="Helvetica Neue" font-size="11.00">embedder_doubao</text>
<text text-anchor="middle" x="697" y="-160.68" font-family="Helvetica Neue" font-size="11.00">豆包 API 2048维</text>
</g>
<!-- writer&#45;&gt;embedder -->
<g id="edge26" class="edge">
<title>writer&#45;&gt;embedder</title>
<path fill="none" stroke="#666666" d="M464.74,-254.27C471.72,-251.4 478.97,-248.76 486,-246.76 546.82,-229.47 569.03,-253.02 627,-227.76 642.78,-220.89 657.86,-209.38 669.96,-198.46"/>
<polygon fill="#666666" stroke="#666666" points="672.23,-201.13 677.1,-191.72 667.43,-196.04 672.23,-201.13"/>
</g>
<!-- guard_code -->
<g id="node25" class="node">
<title>guard_code</title>
<polygon fill="#ffcdd2" stroke="#c62828" points="123.8,-190.39 24.2,-190.39 24.2,-148.12 123.8,-148.12 123.8,-190.39"/>
<text text-anchor="middle" x="74" y="-174.18" font-family="Helvetica Neue" font-size="11.00">代码层</text>
<text text-anchor="middle" x="74" y="-156.93" font-family="Helvetica Neue" font-size="11.00">_is_blacklisted</text>
</g>
<!-- writer&#45;&gt;guard_code -->
<g id="edge33" class="edge">
<title>writer&#45;&gt;guard_code</title>
<path fill="none" stroke="#c62828" stroke-dasharray="5,2" d="M377.96,-275.79C318.66,-275.19 212.6,-267.88 133,-227.76 119.39,-220.9 106.89,-209.8 96.94,-199.16"/>
<polygon fill="#c62828" stroke="#c62828" points="99.79,-197.1 90.53,-191.96 94.56,-201.76 99.79,-197.1"/>
</g>
<!-- guard_explicit -->
<g id="node26" class="node">
<title>guard_explicit</title>
<polygon fill="#ffcdd2" stroke="#c62828" points="238.3,-192.26 141.7,-192.26 141.7,-146.24 238.3,-146.24 238.3,-192.26"/>
<text text-anchor="middle" x="190" y="-176.05" font-family="Helvetica Neue" font-size="11.00">显式标记门禁</text>
<text text-anchor="middle" x="190" y="-158.8" font-family="Helvetica Neue" font-size="11.00">记住/以后别/...</text>
</g>
<!-- writer&#45;&gt;guard_explicit -->
<g id="edge35" class="edge">
<title>writer&#45;&gt;guard_explicit</title>
<path fill="none" stroke="#c62828" stroke-dasharray="5,2" d="M378.02,-268.93C341.65,-262.67 290.09,-250.46 250,-227.76 237.64,-220.77 225.91,-210.65 216.16,-200.84"/>
<polygon fill="#c62828" stroke="#c62828" points="218.94,-198.68 209.51,-193.85 213.87,-203.51 218.94,-198.68"/>
</g>
<!-- retriever&#45;&gt;store -->
<g id="edge28" class="edge">
<title>retriever&#45;&gt;store</title>
<path fill="none" stroke="#666666" d="M646.69,-256.19C629.57,-239.6 604.37,-215.18 585.21,-196.61"/>
<polygon fill="#666666" stroke="#666666" points="587.85,-194.3 578.23,-189.85 582.97,-199.32 587.85,-194.3"/>
</g>
<!-- retriever&#45;&gt;embedder -->
<g id="edge29" class="edge">
<title>retriever&#45;&gt;embedder</title>
<path fill="none" stroke="#666666" d="M671.54,-256.19C676.03,-241.05 682.44,-219.39 687.71,-201.61"/>
<polygon fill="#666666" stroke="#666666" points="691.06,-202.62 690.55,-192.04 684.35,-200.63 691.06,-202.62"/>
</g>
<!-- atrium&#45;&gt;store -->
<g id="edge30" class="edge">
<title>atrium&#45;&gt;store</title>
<path fill="none" stroke="#666666" d="M548.34,-254.47C550.12,-239.01 552.58,-217.53 554.57,-200.14"/>
<polygon fill="#666666" stroke="#666666" points="558.03,-200.71 555.69,-190.37 551.08,-199.91 558.03,-200.71"/>
</g>
<!-- palace_db -->
<g id="node23" class="node">
<title>palace_db</title>
<path fill="#bbdefb" stroke="#283593" d="M607.05,-72.15C607.05,-74.81 585.07,-76.97 558,-76.97 530.93,-76.97 508.95,-74.81 508.95,-72.15 508.95,-72.15 508.95,-28.82 508.95,-28.82 508.95,-26.16 530.93,-24 558,-24 585.07,-24 607.05,-26.16 607.05,-28.82 607.05,-28.82 607.05,-72.15 607.05,-72.15"/>
<path fill="none" stroke="#283593" d="M607.05,-72.15C607.05,-69.49 585.07,-67.34 558,-67.34 530.93,-67.34 508.95,-69.49 508.95,-72.15"/>
<text text-anchor="middle" x="558" y="-53.53" font-family="Helvetica Neue" font-size="11.00">palace.db</text>
<text text-anchor="middle" x="558" y="-40.03" font-family="Helvetica Neue" font-size="11.00">SQLite + WAL</text>
</g>
<!-- store&#45;&gt;palace_db -->
<g id="edge31" class="edge">
<title>store&#45;&gt;palace_db</title>
<path fill="none" stroke="#666666" d="M558,-149.75C558,-133.41 558,-109.08 558,-88.72"/>
<polygon fill="#666666" stroke="#666666" points="561.5,-88.79 558,-78.79 554.5,-88.79 561.5,-88.79"/>
</g>
<!-- guard_sql -->
<g id="node24" class="node">
<title>guard_sql</title>
<polygon fill="#ffcdd2" stroke="#c62828" points="238.43,-73.49 157.57,-73.49 157.57,-27.47 238.43,-27.47 238.43,-73.49"/>
<text text-anchor="middle" x="198" y="-57.28" font-family="Helvetica Neue" font-size="11.00">SQL 触发器</text>
<text text-anchor="middle" x="198" y="-40.03" font-family="Helvetica Neue" font-size="11.00">黑名单 8 词</text>
</g>
<!-- store&#45;&gt;guard_sql -->
<g id="edge34" class="edge">
<title>store&#45;&gt;guard_sql</title>
<path fill="none" stroke="#c62828" stroke-dasharray="5,2" d="M511.71,-149.58C503.2,-146.32 494.36,-143.03 486,-140.12 404.26,-111.61 307.87,-82.93 249.91,-66.2"/>
<polygon fill="#c62828" stroke="#c62828" points="250.88,-62.84 240.3,-63.44 248.95,-69.57 250.88,-62.84"/>
<text text-anchor="middle" x="482.62" y="-119.69" font-family="Helvetica Neue" font-size="9.00">BEFORE INSERT</text>
</g>
<!-- doubao_api -->
<g id="node28" class="node">
<title>doubao_api</title>
<polygon fill="#e0f7fa" stroke="#00838f" points="917.17,-73.49 796.83,-73.49 792.83,-69.49 792.83,-27.47 913.17,-27.47 917.17,-31.47 917.17,-73.49"/>
<polyline fill="none" stroke="#00838f" points="913.17,-69.49 792.83,-69.49"/>
<polyline fill="none" stroke="#00838f" points="913.17,-69.49 913.17,-27.47"/>
<polyline fill="none" stroke="#00838f" points="913.17,-69.49 917.17,-73.49"/>
<text text-anchor="middle" x="855" y="-57.28" font-family="Helvetica Neue" font-size="11.00">豆包 API</text>
<text text-anchor="middle" x="855" y="-40.03" font-family="Helvetica Neue" font-size="11.00">embedding 2048维</text>
</g>
<!-- embedder&#45;&gt;doubao_api -->
<g id="edge32" class="edge">
<title>embedder&#45;&gt;doubao_api</title>
<path fill="none" stroke="#666666" d="M724.88,-147.65C750.04,-129.06 787.3,-101.52 815.51,-80.67"/>
<polygon fill="#666666" stroke="#666666" points="817.52,-83.53 823.49,-74.77 813.36,-77.9 817.52,-83.53"/>
<text text-anchor="middle" x="772.25" y="-119.69" font-family="Helvetica Neue" font-size="9.00">HTTP</text>
</g>
</g>
</svg>
