<?xml version="1.0" encoding="UTF-8" standalone="no"?>
<!DOCTYPE svg PUBLIC "-//W3C//DTD SVG 1.1//EN"
 "http://www.w3.org/Graphics/SVG/1.1/DTD/svg11.dtd">
<!-- Generated by graphviz version 9.0.0 (20230911.1827)
 -->
<!-- Title: mybot_core Pages: 1 -->
<svg width="940pt" height="696pt"
 viewBox="0.00 0.00 940.17 695.99" xmlns="http://www.w3.org/2000/svg" xmlns:xlink="http://www.w3.org/1999/xlink">
<g id="graph0" class="graph" transform="scale(1 1) rotate(0) translate(4 691.99)">
<title>mybot_core</title>
<polygon fill="white" stroke="none" points="-4,4 -4,-691.99 936.17,-691.99 936.17,4 -4,4"/>
<g id="clust1" class="cluster">
<title>cluster_agent</title>
</g>
<!-- user -->
<g id="node1" class="node">
<title>user</title>
<polygon fill="#e3f2fd" stroke="#1565c0" stroke-width="2" points="524.3,-687.99 397.25,-687.99 397.25,-632.46 524.3,-632.46 524.3,-687.99"/>
<text text-anchor="middle" x="460.77" y="-666.05" font-family="PingFang SC,Helvetica Neue" font-size="14.00">👤 邢智强</text>
<text text-anchor="middle" x="460.77" y="-645.05" font-family="PingFang SC,Helvetica Neue" font-size="14.00">Telegram / CLI</text>
</g>
<!-- agent -->
<g id="node2" class="node">
<title>agent</title>
<polygon fill="#fff9c4" stroke="#f57f17" stroke-width="3" points="622.77,-551.46 298.77,-551.46 298.77,-463.68 622.77,-463.68 622.77,-551.46"/>
<text text-anchor="middle" x="460.77" y="-530.47" font-family="PingFang SC,Helvetica Neue" font-size="13.00">🤖 MyBot Agent</text>
<text text-anchor="middle" x="460.77" y="-498.97" font-family="PingFang SC,Helvetica Neue" font-size="13.00">DeepSeek LLM &#160;· &#160;工具并行调度</text>
<text text-anchor="middle" x="460.77" y="-479.47" font-family="PingFang SC,Helvetica Neue" font-size="13.00">会话管理 &#160;· &#160;记忆注入</text>
</g>
<!-- user&#45;&gt;agent -->
<g id="edge1" class="edge">
<title>user&#45;&gt;agent</title>
<path fill="none" stroke="#1565c0" stroke-width="2" d="M439.6,-631.51C439.6,-631.51 439.6,-565.99 439.6,-565.99"/>
<polygon fill="#1565c0" stroke="#1565c0" stroke-width="2" points="443.1,-565.99 439.6,-555.99 436.1,-565.99 443.1,-565.99"/>
<text text-anchor="middle" x="429.52" y="-589.96" font-family="PingFang SC,Helvetica Neue" font-size="10.00">消息</text>
</g>
<!-- agent&#45;&gt;user -->
<g id="edge2" class="edge">
<title>agent&#45;&gt;user</title>
<path fill="none" stroke="#1565c0" stroke-width="2" d="M481.95,-552.96C481.95,-552.96 481.95,-618.56 481.95,-618.56"/>
<polygon fill="#1565c0" stroke="#1565c0" stroke-width="2" points="478.45,-618.56 481.95,-628.56 485.45,-618.56 478.45,-618.56"/>
<text text-anchor="middle" x="512.52" y="-589.96" font-family="PingFang SC,Helvetica Neue" font-size="10.00">回复</text>
</g>
<!-- ontology -->
<g id="node3" class="node">
<title>ontology</title>
<polygon fill="#e8f5e9" stroke="#2e7d32" stroke-width="2" points="287.55,-355.06 0,-355.06 0,-141.9 287.55,-141.9 287.55,-355.06"/>
<text text-anchor="start" x="111.52" y="-330.97" font-family="PingFang SC,Helvetica Neue" font-weight="bold" font-size="11.00">🏛 知识图谱</text>
<text text-anchor="start" x="44.4" y="-304.34" font-family="PingFang SC,Helvetica Neue" font-size="11.00">myontology / ontology&#45;engine :8003</text>
<text text-anchor="start" x="141.9" y="-282.84" font-family="PingFang SC,Helvetica Neue" font-size="11.00"> </text>
<text text-anchor="start" x="20.4" y="-261.34" font-family="PingFang SC,Helvetica Neue" font-size="11.00">📋 实体搜索 · 人物查找 · 关系网络</text>
<text text-anchor="start" x="20.4" y="-235.84" font-family="PingFang SC,Helvetica Neue" font-size="11.00">📅 按月综合视图（地点+人+微信+财务+照片）</text>
<text text-anchor="start" x="20.4" y="-210.34" font-family="PingFang SC,Helvetica Neue" font-size="11.00">📖 人生叙事 · 习惯分析 · 地理画像</text>
<text text-anchor="start" x="141.9" y="-184.84" font-family="PingFang SC,Helvetica Neue" font-size="11.00"> </text>
<text text-anchor="start" x="78.52" y="-164.34" font-family="PingFang SC,Helvetica Neue" font-style="italic" font-size="11.00" fill="#666666">&quot;你的过去&quot; — 发生了什么</text>
</g>
<!-- agent&#45;&gt;ontology -->
<g id="edge3" class="edge">
<title>agent&#45;&gt;ontology</title>
<path fill="none" stroke="#2e7d32" stroke-width="1.5" d="M322.32,-462.36C322.32,-387.99 322.32,-248 322.32,-248 322.32,-248 300.59,-248 300.59,-248"/>
<polygon fill="#2e7d32" stroke="#2e7d32" stroke-width="1.5" points="300.59,-244.5 290.59,-248 300.59,-251.5 300.59,-244.5"/>
<text text-anchor="middle" x="270.52" y="-421.18" font-family="PingFang SC,Helvetica Neue" font-size="10.00"> &#160;HTTP 调用</text>
<text text-anchor="middle" x="270.52" y="-406.18" font-family="PingFang SC,Helvetica Neue" font-size="10.00"> &#160;13 个 operation &#160;</text>
</g>
<!-- neural -->
<g id="node4" class="node">
<title>neural</title>
<polygon fill="#f3e5f5" stroke="#6a1b9a" stroke-width="2" points="575.67,-354.93 345.88,-354.93 345.88,-142.03 575.67,-142.03 575.67,-354.93"/>
<text text-anchor="start" x="428.52" y="-330.84" font-family="PingFang SC,Helvetica Neue" font-weight="bold" font-size="11.00">🧠 数字分身</text>
<text text-anchor="start" x="412.77" y="-304.22" font-family="PingFang SC,Helvetica Neue" font-size="11.00">neural&#45;twin :8004</text>
<text text-anchor="start" x="458.9" y="-282.72" font-family="PingFang SC,Helvetica Neue" font-size="11.00"> </text>
<text text-anchor="start" x="366.27" y="-261.22" font-family="PingFang SC,Helvetica Neue" font-size="11.00">⚖️ 决策预测（该不该买？score + σ）</text>
<text text-anchor="start" x="366.27" y="-235.97" font-family="PingFang SC,Helvetica Neue" font-size="11.00">🔍 异常检测（消费偏离历史模式）</text>
<text text-anchor="start" x="366.27" y="-210.47" font-family="PingFang SC,Helvetica Neue" font-size="11.00">📊 习惯分析 · 日预测</text>
<text text-anchor="start" x="458.9" y="-184.97" font-family="PingFang SC,Helvetica Neue" font-size="11.00"> </text>
<text text-anchor="start" x="401.15" y="-164.47" font-family="PingFang SC,Helvetica Neue" font-style="italic" font-size="11.00" fill="#666666">&quot;你的判断&quot; — 该怎么做</text>
</g>
<!-- agent&#45;&gt;neural -->
<g id="edge4" class="edge">
<title>agent&#45;&gt;neural</title>
<path fill="none" stroke="#6a1b9a" stroke-width="1.5" d="M460.77,-462.44C460.77,-462.44 460.77,-368.04 460.77,-368.04"/>
<polygon fill="#6a1b9a" stroke="#6a1b9a" stroke-width="1.5" points="464.28,-368.04 460.78,-358.04 457.28,-368.04 464.28,-368.04"/>
<text text-anchor="middle" x="500.52" y="-421.18" font-family="PingFang SC,Helvetica Neue" font-size="10.00"> &#160;HTTP 调用</text>
<text text-anchor="middle" x="500.52" y="-406.18" font-family="PingFang SC,Helvetica Neue" font-size="10.00"> &#160;4 个 operation &#160;</text>
</g>
<!-- palace -->
<g id="node5" class="node">
<title>palace</title>
<polygon fill="#e8eaf6" stroke="#283593" stroke-width="2" points="932.17,-367.68 633.38,-367.68 633.38,-129.28 932.17,-129.28 932.17,-367.68"/>
<text text-anchor="start" x="733.65" y="-343.59" font-family="PingFang SC,Helvetica Neue" font-weight="bold" font-size="11.00">🏰 丽泽园记忆宫殿</text>
<text text-anchor="start" x="700.65" y="-316.97" font-family="PingFang SC,Helvetica Neue" font-size="11.00">palace/ &#160;· &#160;SQLite + sqlite&#45;vec</text>
<text text-anchor="start" x="780.9" y="-295.47" font-family="PingFang SC,Helvetica Neue" font-size="11.00"> </text>
<text text-anchor="start" x="653.77" y="-273.97" font-family="PingFang SC,Helvetica Neue" font-size="11.00">🏗 南楼：摘要 + 豆包 2048 维向量 + BM25</text>
<text text-anchor="start" x="653.77" y="-248.47" font-family="PingFang SC,Helvetica Neue" font-size="11.00">📜 北楼：原始对话存档</text>
<text text-anchor="start" x="653.77" y="-222.97" font-family="PingFang SC,Helvetica Neue" font-size="11.00">⚓ 中庭：永久规则 / 偏好 / 事实</text>
<text text-anchor="start" x="653.77" y="-197.72" font-family="PingFang SC,Helvetica Neue" font-size="11.00">🛡 防锈：SQL 黑名单 + 代码过滤 + 显式标记门禁</text>
<text text-anchor="start" x="780.9" y="-172.22" font-family="PingFang SC,Helvetica Neue" font-size="11.00"> </text>
<text text-anchor="start" x="711.9" y="-151.72" font-family="PingFang SC,Helvetica Neue" font-style="italic" font-size="11.00" fill="#666666">&quot;你的记忆&quot; — 跨会话连续性</text>
</g>
<!-- agent&#45;&gt;palace -->
<g id="edge5" class="edge">
<title>agent&#45;&gt;palace</title>
<path fill="none" stroke="#283593" stroke-width="1.5" d="M607.08,-462.22C607.08,-419.83 607.08,-363 607.08,-363 607.08,-363 620.35,-363 620.35,-363"/>
<polygon fill="#283593" stroke="#283593" stroke-width="1.5" points="620.35,-366.5 630.35,-363 620.35,-359.5 620.35,-366.5"/>
<text text-anchor="middle" x="661.27" y="-421.18" font-family="PingFang SC,Helvetica Neue" font-size="10.00"> &#160;对话前：召回记忆</text>
<text text-anchor="middle" x="661.27" y="-406.18" font-family="PingFang SC,Helvetica Neue" font-size="10.00"> &#160;对话后：异步归档 &#160;</text>
</g>
<!-- db_postgres -->
<g id="node6" class="node">
<title>db_postgres</title>
<polygon fill="#eceff1" stroke="#90a4ae" points="209.17,-61.16 78.37,-61.16 78.37,-1.12 209.17,-1.12 209.17,-61.16"/>
<text text-anchor="middle" x="143.77" y="-43.02" font-family="PingFang SC,Helvetica Neue" font-size="10.00">PostgreSQL</text>
<text text-anchor="middle" x="143.77" y="-30.27" font-family="PingFang SC,Helvetica Neue" font-size="10.00">16191 实体 · 805 关系</text>
<text text-anchor="middle" x="143.77" y="-15.27" font-family="PingFang SC,Helvetica Neue" font-size="10.00">12523 事件 · 190 人物</text>
</g>
<!-- ontology&#45;&gt;db_postgres -->
<g id="edge6" class="edge">
<title>ontology&#45;&gt;db_postgres</title>
<path fill="none" stroke="#2e7d32" stroke-dasharray="5,2" d="M143.77,-141.08C143.77,-141.08 143.77,-72.84 143.77,-72.84"/>
<polygon fill="#2e7d32" stroke="#2e7d32" points="147.28,-72.84 143.78,-62.84 140.28,-72.84 147.28,-72.84"/>
</g>
<!-- db_keras -->
<g id="node7" class="node">
<title>db_keras</title>
<polygon fill="#eceff1" stroke="#90a4ae" points="519.05,-62.28 402.5,-62.28 402.5,0 519.05,0 519.05,-62.28"/>
<text text-anchor="middle" x="460.77" y="-44.14" font-family="PingFang SC,Helvetica Neue" font-size="10.00">13 个 Keras 模型</text>
<text text-anchor="middle" x="460.77" y="-29.14" font-family="PingFang SC,Helvetica Neue" font-size="10.00">消费/行为/决策</text>
<text text-anchor="middle" x="460.77" y="-14.14" font-family="PingFang SC,Helvetica Neue" font-size="10.00">从零训练的神经网络</text>
</g>
<!-- neural&#45;&gt;db_keras -->
<g id="edge7" class="edge">
<title>neural&#45;&gt;db_keras</title>
<path fill="none" stroke="#6a1b9a" stroke-dasharray="5,2" d="M460.77,-141.08C460.77,-141.08 460.77,-74.23 460.77,-74.23"/>
<polygon fill="#6a1b9a" stroke="#6a1b9a" points="464.28,-74.23 460.78,-64.23 457.28,-74.23 464.28,-74.23"/>
</g>
<!-- palace&#45;&gt;agent -->
<g id="edge9" class="edge">
<title>palace&#45;&gt;agent</title>
<path fill="none" stroke="#283593" stroke-dasharray="5,2" d="M632.44,-359C608.47,-359 591.38,-359 591.38,-359 591.38,-359 591.38,-450.67 591.38,-450.67"/>
<polygon fill="#283593" stroke="#283593" points="587.88,-450.67 591.38,-460.67 594.88,-450.67 587.88,-450.67"/>
<text text-anchor="middle" x="822.77" y="-413.68" font-family="PingFang SC,Helvetica Neue" font-size="10.00">注入 system prompt</text>
</g>
<!-- db_palace -->
<g id="node8" class="node">
<title>db_palace</title>
<polygon fill="#eceff1" stroke="#90a4ae" points="840.3,-61.16 725.25,-61.16 725.25,-1.12 840.3,-1.12 840.3,-61.16"/>
<text text-anchor="middle" x="782.77" y="-43.02" font-family="PingFang SC,Helvetica Neue" font-size="10.00">palace.db</text>
<text text-anchor="middle" x="782.77" y="-30.27" font-family="PingFang SC,Helvetica Neue" font-size="10.00">按日归档 · 10 间房</text>
<text text-anchor="middle" x="782.77" y="-15.27" font-family="PingFang SC,Helvetica Neue" font-size="10.00">向量+全文混合召回</text>
</g>
<!-- palace&#45;&gt;db_palace -->
<g id="edge8" class="edge">
<title>palace&#45;&gt;db_palace</title>
<path fill="none" stroke="#283593" stroke-dasharray="5,2" d="M782.77,-128.37C782.77,-128.37 782.77,-72.84 782.77,-72.84"/>
<polygon fill="#283593" stroke="#283593" points="786.28,-72.84 782.78,-62.84 779.28,-72.84 786.28,-72.84"/>
</g>
</g>
</svg>
